<svg width="434" height="434" viewBox="0 0 434 434" fill="none" xmlns="http://www.w3.org/2000/svg">
<circle cx="217" cy="216" r="210" fill="#AE96C7"/>
<path fill-rule="evenodd" clip-rule="evenodd" d="M192.202 1.50803C180.116 2.88103 161.319 6.98702 149.5 10.835C128.094 17.805 104.334 30.171 87.378 43.167C83.845 45.875 80.504 47.811 79.953 47.471C79.401 47.13 79.074 47.248 79.225 47.732C79.376 48.216 74.198 53.715 67.717 59.951C39.061 87.526 19.038 120.344 8.63404 156.789C2.54004 178.135 0.606026 192.791 0.624026 217.5C0.636026 235.147 1.01404 240.576 2.99004 251.5C4.28304 258.65 5.37603 265.92 5.42003 267.655C5.46403 269.389 5.77403 270.64 6.10903 270.433C6.44403 270.225 7.52304 273.081 8.50704 276.778C10.873 285.672 17.836 303.726 22.49 313.031C50.729 369.5 102.05 411.217 162.5 426.841C182.17 431.925 194.148 433.386 216.5 433.429C246.497 433.486 268.671 429.519 294.731 419.432C299.809 417.467 304.534 416.188 305.231 416.59C305.929 416.992 306.158 416.944 305.739 416.483C305.32 416.022 310.031 413.017 316.207 409.806C322.383 406.594 332.103 400.822 337.807 396.979C343.511 393.136 348.657 390.288 349.244 390.65C349.83 391.013 350.022 390.844 349.67 390.276C348.868 388.977 363.425 376.818 364.621 377.788C365.104 378.179 365.17 378.095 364.767 377.601C364.364 377.106 368.414 372.143 373.767 366.573C385.439 354.427 394.664 342.336 403.373 327.767C406.921 321.831 410.015 317.318 410.249 317.737C410.482 318.157 410.526 317.913 410.347 317.196C410.168 316.479 411.17 313.625 412.573 310.855C418.922 298.327 426.236 276.594 429.352 261C432.74 244.044 433.409 236.788 433.409 217C433.409 192.875 431.422 178.002 425.366 156.789C407.379 93.78 359.754 40.948 298.421 15.963C282.92 9.64903 261.659 3.91502 248.25 2.43302C244.813 2.05302 241.998 1.46202 241.996 1.12102C241.988 -0.152976 204.241 0.140025 192.202 1.50803ZM314 92.626L316.5 95.046V179.273C316.5 271.572 316.612 269.649 310.481 282.5C302.58 299.06 285.77 308.943 265.432 308.985C239.63 309.039 221.67 292.839 223.238 270.924C223.894 261.744 228.059 253.148 235.923 244.741C250.951 228.676 269.908 222.082 287.69 226.734L294.879 228.615L294.399 193.058C294.135 173.501 293.68 155.137 293.387 152.249C292.824 146.683 291.063 144 287.974 144C286.192 144 188.497 171.1 183.687 172.929C178.366 174.952 178.543 173.094 177.924 233.402C177.417 282.822 177.14 290.214 175.594 295.5C169.615 315.954 156.576 328.937 137.912 333.023C134.669 333.733 128.166 334.072 122.412 333.831C110.427 333.329 103.061 330.415 95.824 323.311C78.923 306.721 82.588 279.132 103.851 262.874C117.398 252.516 135.172 248.549 150.339 252.5C153.506 253.325 156.526 254 157.049 254C157.638 254 158 233.812 158 200.886C158 147.929 158.007 147.761 160.212 143.837C161.428 141.672 163.791 139.079 165.462 138.074C169.803 135.462 181.5 133 181.5 133L218.225 120.586L218.696 120.439L267.979 102.431C292.424 94.121 308.248 89.63 309.5 90C310.611 90.329 312.625 91.295 314 92.626ZM431.272 263C431.272 265.475 431.467 266.488 431.706 265.25C431.944 264.012 431.944 261.988 431.706 260.75C431.467 259.512 431.272 260.525 431.272 263ZM428.195 273.5C428.215 275.15 428.439 275.704 428.693 274.731C428.947 273.758 428.93 272.408 428.656 271.731C428.382 271.054 428.175 271.85 428.195 273.5ZM426.079 281.583C426.127 282.748 426.364 282.985 426.683 282.188C426.972 281.466 426.936 280.603 426.604 280.271C426.272 279.939 426.036 280.529 426.079 281.583ZM90.079 282.583C90.127 283.748 90.364 283.985 90.683 283.188C90.972 282.466 90.936 281.603 90.604 281.271C90.272 280.939 90.036 281.529 90.079 282.583ZM423.079 289.583C423.127 290.748 423.364 290.985 423.683 290.188C423.972 289.466 423.936 288.603 423.604 288.271C423.272 287.939 423.036 288.529 423.079 289.583ZM418.158 303C418.158 304.375 418.385 304.938 418.662 304.25C418.94 303.563 418.94 302.438 418.662 301.75C418.385 301.063 418.158 301.625 418.158 303ZM90.158 311C90.158 312.375 90.385 312.938 90.662 312.25C90.94 311.563 90.94 310.438 90.662 309.75C90.385 309.063 90.158 309.625 90.158 311Z" fill="#2A2141"/>
</svg>
